# xmcd
#
# Track frame offsets: 
#        150
#        14250
#        40118
#        60815
#
# Disc length: 1059 seconds
#
# Revision: 0
# Processed by: cddbd v1.5.2PL0 Copyright (c) Steve Scherf et al.
# Submitted via: ExactAudioCopy v0.99pb5
#
DISCID=21042104
DTITLE=Darden Purcell - Darden Purcell
DYEAR=1900
DGENRE=Country
TTITLE0=Two More Bottles Of Wine
TTITLE1=I Know Why The River Runs
TTITLE2=Hearts In Armor
TTITLE3=Stronger
EXTD=
EXTT0=
EXTT1=
EXTT2=
EXTT3=
PLAYORDER=
